<svg width="25" height="25" viewBox="0 0 25 25" fill="none" xmlns="http://www.w3.org/2000/svg">
<path d="M13.1544 15.1965C11.38 15.1965 9.93628 13.7401 9.93628 11.95C9.93628 10.1598 11.38 8.70338 13.1544 8.70338C14.929 8.70338 16.3727 10.1598 16.3727 11.95C16.3727 13.7401 14.929 15.1965 13.1544 15.1965ZM13.1544 9.93184C12.0514 9.93184 11.154 10.8372 11.154 11.95C11.154 13.0628 12.0514 13.9681 13.1544 13.9681C14.2575 13.9681 15.155 13.0627 15.155 11.95C15.155 10.8372 14.2576 9.93184 13.1544 9.93184Z" fill="#BCBCBC"/>
<path d="M24.9169 17.5632C25.1539 19.3203 24.8818 20.8148 24.13 21.9188C24.253 22.1928 24.3221 22.4965 24.3221 22.8164C24.3221 24.0204 23.3511 25 22.1576 25C21.3511 25 20.6466 24.5523 20.2742 23.8906C18.2351 23.9934 15.7385 23.2376 13.1543 21.7315C8.74208 24.3039 4.74731 24.6129 2.67505 22.5216C1.77441 21.6131 1.30796 20.313 1.31011 18.7424C0.540283 18.4074 0 17.6345 0 16.7365C0 15.5324 0.970995 14.5529 2.1645 14.5529C2.17705 14.5529 2.1894 14.5536 2.2019 14.5539C2.53481 13.6997 2.9559 12.827 3.45825 11.95C0.9083 7.49887 0.60205 3.46886 2.67495 1.37831C3.58945 0.455496 4.87788 -4.92549e-05 6.41161 3.9945e-09C8.3537 4.92628e-05 10.689 0.731149 13.1542 2.16837C15.6197 0.731001 17.9547 3.9945e-09 19.897 3.9945e-09C21.4307 3.9945e-09 22.7195 0.455496 23.6341 1.37816C25.7069 3.46925 25.4001 7.49946 22.8494 11.9503C23.9713 13.9095 24.6849 15.8437 24.9169 17.5632ZM22.1576 23.7715C22.6796 23.7715 23.1044 23.343 23.1044 22.8164C23.1044 22.2898 22.6796 21.8613 22.1576 21.8613C21.6356 21.8613 21.2108 22.2898 21.2108 22.8164C21.2108 23.343 21.6355 23.7715 22.1576 23.7715ZM19.9984 22.6714C20.0726 21.5348 21.0124 20.6328 22.1576 20.6328C22.5722 20.6328 22.9598 20.7512 23.2893 20.9559C23.74 20.1303 23.8857 19.0295 23.7103 17.7288C23.522 16.3327 22.9738 14.7638 22.1157 13.1465C21.1373 14.6434 19.9616 16.0885 18.6092 17.4529C17.2569 18.8172 15.824 20.0036 14.3394 20.9914C16.4181 22.1158 18.3812 22.6991 19.9984 22.6714ZM2.1645 15.7814C1.64248 15.7814 1.21772 16.2098 1.21772 16.7365C1.21772 17.2631 1.64248 17.6916 2.1645 17.6916C2.68652 17.6916 3.11128 17.2631 3.11128 16.7365C3.11133 16.2099 2.68657 15.7814 2.1645 15.7814ZM3.36796 14.9225C3.94711 15.3148 4.32905 15.9814 4.32905 16.7365C4.32905 17.8154 3.54907 18.7136 2.52822 18.8886C2.55288 20.0591 2.89648 21.0077 3.53613 21.653C5.09306 23.2241 8.34149 22.9479 11.9682 20.9907C10.4839 20.0031 9.05146 18.8169 7.69941 17.4529C6.34716 16.0887 5.17128 14.6435 4.19228 13.1461C3.87426 13.7454 3.59902 14.3392 3.36796 14.9225ZM3.53598 2.24694C1.97861 3.81756 2.25244 7.0947 4.19248 10.7533C5.17143 9.25593 6.34726 7.81088 7.69936 6.44685C9.05146 5.08287 10.4839 3.89667 11.9681 2.90903C8.34145 0.952026 5.09306 0.675782 3.53598 2.24694ZM8.56049 7.31558C7.10986 8.77896 5.87241 10.3365 4.87783 11.95C5.87231 13.5633 7.10981 15.1208 8.56049 16.5843C10.0111 18.0478 11.555 19.2962 13.1543 20.2995C14.7536 19.2961 16.2975 18.0478 17.7482 16.5843C19.1992 15.1204 20.4366 13.5629 21.4303 11.95C20.4366 10.3371 19.1993 8.7795 17.7482 7.31558C16.2975 5.85215 14.7536 4.60373 13.1543 3.60043C11.5551 4.60373 10.0111 5.85215 8.56049 7.31558ZM22.773 2.24689C21.2156 0.67588 17.967 0.952026 14.3404 2.90908C15.8246 3.89667 17.2571 5.08287 18.6092 6.4469C19.9616 7.81132 21.1373 9.25638 22.1156 10.7532C24.056 7.0948 24.3302 3.81771 22.773 2.24689Z" fill="#BCBCBC"/>
</svg>
