<svg width="32" height="21" viewBox="0 0 32 21" fill="none" xmlns="http://www.w3.org/2000/svg">
<path d="M5.5721 2.93384H26.4279C26.8082 2.93384 27.1166 3.23584 27.1166 3.60843V13.797C27.1166 14.1696 26.8082 14.4716 26.4279 14.4716C26.0476 14.4716 25.7392 14.1696 25.7392 13.797V4.28296H6.26079V13.7969C6.26079 14.1695 5.95241 14.4715 5.5721 14.4715C5.19178 14.4715 4.88341 14.1695 4.88341 13.7969V3.60837C4.88347 3.23584 5.19185 2.93384 5.5721 2.93384Z" fill="#BCBCBC"/>
<path d="M0.61975 16.2059H1.88819V2.03913C1.88819 0.914758 2.82207 0 3.96994 0H28.03C29.1779 0 30.1117 0.914758 30.1117 2.03913V16.2059H31.3802C31.7225 16.2059 32 16.4776 32 16.813V18.0048C32 19.6564 30.6283 21 28.9422 21H3.05775C1.37169 21 1.05574e-08 19.6564 1.05574e-08 18.0048V16.813C-6.24896e-05 16.4776 0.277375 16.2059 0.61975 16.2059ZM28.7344 2.03913C28.7344 1.65871 28.4184 1.34912 28.03 1.34912H3.97007C3.58157 1.34912 3.26563 1.65865 3.26563 2.03913V16.2059H12.5906C12.6346 16.2045 12.6799 16.2081 12.7249 16.2167C13.0167 16.2716 13.2275 16.5218 13.2275 16.8128C13.2275 17.3252 13.6531 17.7421 14.1762 17.7421H17.8237C18.3469 17.7421 18.7724 17.3252 18.7724 16.8128C18.7724 16.4728 19.06 16.1985 19.4066 16.2058H28.7344V2.03913ZM1.23957 18.0048C1.23957 18.9869 2.05525 19.7858 3.05769 19.7858H28.9422C29.9447 19.7858 30.7604 18.9869 30.7604 18.0048V17.4201H19.9227C19.6547 18.3073 18.8152 18.9564 17.8238 18.9564H14.1762C13.1848 18.9564 12.3453 18.3072 12.0773 17.4201H1.2395L1.23957 18.0048Z" fill="#BCBCBC"/>
<path d="M14.9793 6.85492C15.2483 6.59149 15.6842 6.59149 15.9533 6.85492L20.2844 11.0975C20.5533 11.3609 20.5533 11.7881 20.2844 12.0515C20.1499 12.1833 19.9736 12.2491 19.7974 12.2491C19.6212 12.2491 19.445 12.1831 19.3105 12.0515L14.9793 7.80898C14.7104 7.54555 14.7104 7.11842 14.9793 6.85492Z" fill="#BCBCBC"/>
<path d="M12.4121 9.31354C12.6811 9.05011 13.117 9.05011 13.386 9.31354L15.1114 11.0036C15.3803 11.267 15.3803 11.6942 15.1114 11.9577C14.9769 12.0894 14.8007 12.1552 14.6245 12.1552C14.4482 12.1552 14.272 12.0894 14.1375 11.9577L12.4122 10.2676C12.1432 10.0042 12.1432 9.57703 12.4121 9.31354Z" fill="#BCBCBC"/>
</svg>
