<svg width="16" height="27" viewBox="0 0 16 27" fill="none" xmlns="http://www.w3.org/2000/svg">
<path fill-rule="evenodd" clip-rule="evenodd" d="M11.2487 0.00615732C10.8292 0.00615732 10.4898 0.344812 10.4898 0.763512V6.13888H5.51639V0.757355C5.51639 0.338654 5.17701 0 4.75742 0C4.33783 0 3.99846 0.338654 3.99846 0.757355V6.13273H0.758967C0.339375 6.13273 0 6.47138 0 6.89008C0 7.30878 0.339375 7.64128 0.758967 7.64128H1.51176V12.0561C1.51176 14.5621 2.95565 16.7418 5.04744 17.8132V20.3316C5.04744 21.2921 5.83108 22.0741 6.79367 22.0741H7.23795V22.3204C7.23795 24.026 8.6263 25.4114 10.3355 25.4114H12.8901C13.7663 25.4114 14.4759 26.1195 14.4759 26.9938L15.9938 27C15.9938 25.2944 14.6055 23.909 12.8963 23.909H10.3479C9.47165 23.909 8.76205 23.2009 8.76205 22.3266V22.0803H9.20632C10.1689 22.0803 10.9526 21.2983 10.9526 20.3377V17.8194C13.0505 16.748 14.4882 14.5745 14.4882 12.0623V7.64744H15.241C15.6606 7.64744 16 7.30878 16 6.89624C16 6.48369 15.6606 6.13888 15.241 6.13888H12.0015V0.757355C12.0015 0.344812 11.6622 0.00615732 11.2487 0.00615732ZM9.20015 20.5717C9.32973 20.5717 9.43463 20.467 9.43463 20.3377V18.3674C8.97185 18.4721 8.49672 18.5336 8.00309 18.5336C7.50945 18.5336 7.03432 18.4721 6.57154 18.3674V20.3377C6.57154 20.467 6.67644 20.5717 6.80602 20.5717H9.20015ZM8.00309 17.0251C10.7489 17.0251 12.9765 14.7961 12.9765 12.0623H12.9703V7.64744H3.02969V12.0623C3.02969 14.8023 5.25723 17.0251 8.00309 17.0251Z" fill="#BCBCBC"/>
</svg>
