<svg width="31" height="15" viewBox="0 0 31 15" fill="none" xmlns="http://www.w3.org/2000/svg">
<path d="M29.2416 0.594115C28.8101 0.602448 28.3819 0.673583 27.9694 0.805488C27.7456 0.881027 27.5982 1.1031 27.6097 1.34747V2.76204C26.5994 3.44379 25.4083 3.77752 24.2052 3.71593C23.8559 3.71593 23.5796 3.71593 23.418 3.67799L20.0083 0.323124C19.7477 0.0931883 19.4108 -0.0215765 19.0699 0.00335469C17.219 0.00335469 12.9908 2.17128 10.7594 3.53166C8.11091 5.1576 2.74092 6.10065 2.68878 6.11149L2.5793 6.14401C-0.136981 7.31469 -0.204757 9.64522 0.15498 10.7617C0.905736 14.7669 9.39866 15 11.3329 15H29.9558C30.2437 15 30.4772 14.7573 30.4772 14.458V11.5693C30.7491 11.2432 30.9294 10.8457 30.9985 10.4203C31.0005 10.3932 31.0005 10.366 30.9985 10.339V2.20922C30.9829 1.1903 30.3208 0.594115 29.2416 0.594115ZM8.46543 5.74837L9.15362 7.04912C9.29758 7.31104 9.61854 7.40202 9.87049 7.25237C10.1224 7.10271 10.21 6.76905 10.066 6.50714L9.45601 5.35272C9.89917 5.17386 10.3215 4.98417 10.7125 4.77822L11.5832 6.16027C11.7375 6.41297 12.0597 6.4877 12.3028 6.3272C12.5458 6.16671 12.6177 5.83176 12.4633 5.57913C12.4603 5.57405 12.4571 5.56911 12.4538 5.56416L11.6301 4.25798C12.0055 4.03577 12.3913 3.81356 12.7927 3.59676L13.8354 5.17935C13.9873 5.43368 14.3087 5.51193 14.5533 5.35407C14.798 5.19622 14.8733 4.86209 14.7214 4.60776C14.7119 4.59178 14.7015 4.57633 14.6904 4.56149L13.7103 3.09814C14.1743 2.85967 14.6435 2.62662 15.0971 2.41524L16.3171 4.25798C16.4769 4.50702 16.8006 4.57423 17.0401 4.40811C17.2797 4.24199 17.3444 3.90549 17.1846 3.65645C17.1822 3.65279 17.1798 3.64913 17.1774 3.64554L16.093 2.0196C17.0304 1.56115 18.0316 1.25933 19.0595 1.12533C19.1339 1.11482 19.2093 1.11482 19.2837 1.12533L21.3691 3.15776C19.3107 6.02722 16.4418 8.15693 13.1629 9.24964C11.7205 8.76124 10.2339 8.42711 8.72618 8.25239C7.38537 8.1545 6.1083 7.61969 5.07667 6.724C6.11932 6.48546 7.3028 6.16027 8.46543 5.74837ZM2.91818 7.18462C3.04852 7.18462 3.38219 7.0979 3.84098 7.00034C5.13167 8.36302 6.85496 9.19137 8.68962 9.33087C10.4049 9.41758 14.0231 10.6208 16.51 11.4988H14.2264C4.78464 11.5367 1.94845 10.7617 1.10385 10.2197C0.98394 9.73193 0.817105 8.10057 2.91818 7.18462ZM29.4345 13.9106H11.5832C9.28918 13.9431 3.82013 13.5692 1.85982 11.7047C3.48646 12.1546 6.87007 12.6207 14.2577 12.6207C15.9886 12.6207 17.7352 12.6207 19.3931 12.5557C20.9572 12.5177 22.4326 12.4689 23.7517 12.4147C26.9528 12.2901 29.1894 12.1546 29.2155 12.1492C29.2884 12.1543 29.3615 12.1543 29.4345 12.1492V13.9106ZM29.9558 10.2902C29.9245 10.4474 29.7629 11.0706 29.1738 11.0706C29.1373 11.0706 27.2239 11.1899 24.4138 11.3091C25.42 7.5911 28.6107 6.36081 29.9558 6.00852V10.2902ZM23.3189 11.3525C22.1354 11.3958 20.832 11.4392 19.4661 11.4717C19.0021 11.2874 17.0313 10.5286 14.8208 9.79155C17.7096 8.53924 20.228 6.51405 22.1198 3.92189L22.8028 4.60478C22.8805 4.68059 22.9788 4.72978 23.0843 4.7457C23.4491 4.79502 23.8166 4.8186 24.1844 4.81616C25.4356 4.81616 27.1926 4.56684 28.4595 3.38532C28.5687 3.28289 28.6312 3.13716 28.6316 2.98426V1.74312C28.8238 1.70247 29.0193 1.68065 29.2155 1.67808C29.9297 1.67808 29.9402 2.00327 29.9454 2.22006L29.9558 4.89745C28.5742 5.2389 24.3981 6.63722 23.3189 11.3525Z" fill="#BCBCBC"/>
</svg>
