<svg width="27" height="27" viewBox="0 0 27 27" fill="none" xmlns="http://www.w3.org/2000/svg">
<path d="M13.5 1C6.60742 1 1 6.60742 1 13.5C1 20.3926 6.60742 26 13.5 26C20.3926 26 26 20.3926 26 13.5C26 6.60742 20.3926 1 13.5 1ZM25.0719 15.348L23.5543 12.8328L24.6016 9.75469C24.9996 10.9316 25.2188 12.1902 25.2188 13.5C25.2188 14.1289 25.1676 14.7457 25.0719 15.348ZM22.1195 21.4289C22.0691 21.416 22.0152 21.4121 21.9602 21.4211L18.1797 22.0273C18.1715 21.9813 18.1574 21.9352 18.1316 21.8926L15.9824 18.3105L19.4574 12.959H22.7496C22.7586 13.0012 22.768 13.043 22.7906 13.0809L24.8359 16.4707C24.3441 18.3477 23.3965 20.0422 22.1195 21.4289ZM18.1801 22.8184L21.1832 22.3371C19.8793 23.4723 18.3234 24.3242 16.6105 24.7965L18.1801 22.8184ZM5.94141 4.55469C7.91641 2.8832 10.4496 1.8543 13.218 1.78828C13.2383 1.84219 13.2672 1.89297 13.3117 1.93516L15.4699 3.97187L14.6164 7.15781L9.05508 9.29258C9.03477 9.27617 9.01875 9.25586 8.99492 9.24336L5.53008 7.40703L5.94141 4.55469ZM15.9945 3.39219L14.3215 1.81328C15.8512 1.91992 17.3012 2.31836 18.6141 2.9582L15.9945 3.39219ZM9.56641 16.1316L9.24766 10.0559L14.9277 7.875L18.757 12.6039L15.4434 17.7066L9.56641 16.1316ZM24.166 8.65469C24.1539 8.67578 24.1379 8.69297 24.1297 8.7168L22.952 12.1777H19.4176L15.407 7.22539L16.2324 4.14453L19.4629 3.60898C19.5316 3.59766 19.5891 3.56445 19.6398 3.52383C21.6125 4.74258 23.1965 6.52969 24.166 8.65469ZM5.02773 5.4168L4.71445 7.58906L2.625 9.1418C3.18555 7.74766 4.00625 6.48633 5.02773 5.4168ZM2.19375 10.4246C2.21094 10.4156 2.22891 10.4102 2.24492 10.398L5.26719 8.15156L8.45391 9.84023L8.80078 16.4559C8.80156 16.4656 8.80586 16.4746 8.80703 16.4844L5.79531 19.4645C5.76953 19.4898 5.7543 19.5211 5.73711 19.5512L2.84922 18.3125C2.83828 18.3078 2.82695 18.309 2.81602 18.3055C2.15352 16.8379 1.78125 15.2121 1.78125 13.5C1.78125 12.4355 1.92656 11.4055 2.19375 10.4246ZM3.37422 19.3875L5.48945 20.2945L7.10703 23.3137C5.57812 22.3141 4.29688 20.9684 3.37422 19.3875ZM8.3582 24.0277C8.35078 24.0027 8.34844 23.9766 8.33555 23.9527L6.25859 20.0762C6.28828 20.0594 6.31914 20.0449 6.34453 20.0195L9.48008 16.9172L15.1469 18.4359L17.4621 22.2949C17.4816 22.3273 17.5051 22.3551 17.5316 22.3797L15.4031 25.0621C14.7832 25.1637 14.148 25.2188 13.5 25.2188C11.6562 25.2188 9.91172 24.7895 8.3582 24.0277Z" fill="#BCBCBC"/>
<path d="M25.0719 15.348L24.8578 15.4772L25.2114 16.0632L25.3188 15.3873L25.0719 15.348ZM23.5543 12.8328L23.3176 12.7523L23.2802 12.8624L23.3402 12.962L23.5543 12.8328ZM24.6016 9.75469L24.8384 9.67459L24.6023 8.97644L24.3649 9.67416L24.6016 9.75469ZM22.1195 21.4289L22.0576 21.6711L22.2023 21.7081L22.3034 21.5983L22.1195 21.4289ZM21.9602 21.4211L21.9997 21.6679L22.0004 21.6678L21.9602 21.4211ZM18.1797 22.0273L17.9336 22.0711L17.9766 22.3131L18.2193 22.2742L18.1797 22.0273ZM18.1316 21.8926L17.9173 22.0212L17.9178 22.0221L18.1316 21.8926ZM15.9824 18.3105L15.7727 18.1744L15.6877 18.3053L15.768 18.4392L15.9824 18.3105ZM19.4574 12.959V12.709H19.3217L19.2477 12.8228L19.4574 12.959ZM22.7496 12.959L22.9941 12.9069L22.952 12.709H22.7496V12.959ZM22.7906 13.0809L22.5761 13.2092L22.5766 13.21L22.7906 13.0809ZM24.8359 16.4707L25.0778 16.5341L25.1045 16.4319L25.05 16.3415L24.8359 16.4707ZM18.1801 22.8184L18.1405 22.5715L18.0446 22.5869L17.9842 22.663L18.1801 22.8184ZM21.1832 22.3371L21.3474 22.5257L22.0063 21.952L21.1436 22.0903L21.1832 22.3371ZM16.6105 24.7965L16.4147 24.6411L15.9387 25.2411L16.677 25.0375L16.6105 24.7965ZM5.94141 4.55469L5.7799 4.36386L5.7075 4.42513L5.69397 4.51901L5.94141 4.55469ZM13.218 1.78828L13.4519 1.70013L13.3894 1.53412L13.212 1.53835L13.218 1.78828ZM13.3117 1.93516L13.1398 2.11664L13.1401 2.11698L13.3117 1.93516ZM15.4699 3.97187L15.7114 4.03657L15.75 3.89245L15.6415 3.79006L15.4699 3.97187ZM14.6164 7.15781L14.706 7.39121L14.8249 7.34556L14.8579 7.22251L14.6164 7.15781ZM9.05508 9.29258L8.89799 9.48706L9.01012 9.57762L9.14467 9.52597L9.05508 9.29258ZM8.99492 9.24336L8.87785 9.46426L8.87878 9.46475L8.99492 9.24336ZM5.53008 7.40703L5.28264 7.37135L5.25752 7.54552L5.41301 7.62793L5.53008 7.40703ZM15.9945 3.39219L15.8229 3.57401L15.9131 3.65909L16.0354 3.63883L15.9945 3.39219ZM14.3215 1.81328L14.3389 1.56389L13.6415 1.51527L14.1499 1.9951L14.3215 1.81328ZM18.6141 2.9582L18.6549 3.20484L19.428 3.07677L18.7236 2.73347L18.6141 2.9582ZM9.56641 16.1316L9.31675 16.1447L9.32626 16.3261L9.50169 16.3731L9.56641 16.1316ZM9.24766 10.0559L9.15805 9.82247L8.98848 9.88758L8.998 10.069L9.24766 10.0559ZM14.9277 7.875L15.122 7.71767L15.0077 7.5765L14.8381 7.64161L14.9277 7.875ZM18.757 12.6039L18.9667 12.7401L19.0656 12.5877L18.9513 12.4466L18.757 12.6039ZM15.4434 17.7066L15.3786 17.9481L15.5541 17.9951L15.653 17.8428L15.4434 17.7066ZM24.166 8.65469L24.3828 8.77915L24.4468 8.66777L24.3935 8.55092L24.166 8.65469ZM24.1297 8.7168L23.8933 8.63542L23.893 8.63626L24.1297 8.7168ZM22.952 12.1777V12.4277H23.131L23.1886 12.2583L22.952 12.1777ZM19.4176 12.1777L19.2233 12.3351L19.2983 12.4277H19.4176V12.1777ZM15.407 7.22539L15.1655 7.1607L15.1326 7.28374L15.2127 7.38273L15.407 7.22539ZM16.2324 4.14453L16.1915 3.8979L16.0326 3.92424L15.9909 4.07984L16.2324 4.14453ZM19.4629 3.60898L19.4222 3.36231L19.422 3.36235L19.4629 3.60898ZM19.6398 3.52383L19.7712 3.31115L19.6213 3.21851L19.4837 3.32861L19.6398 3.52383ZM5.02773 5.4168L5.27517 5.45248L5.38673 4.67895L4.84694 5.24413L5.02773 5.4168ZM4.71445 7.58906L4.86357 7.78972L4.94705 7.72769L4.96189 7.62475L4.71445 7.58906ZM2.625 9.1418L2.39305 9.04854L2.06213 9.87155L2.77412 9.34246L2.625 9.1418ZM2.19375 10.4246L2.07794 10.2031L1.98122 10.2536L1.95254 10.3589L2.19375 10.4246ZM2.24492 10.398L2.09578 10.1974L2.09414 10.1986L2.24492 10.398ZM5.26719 8.15156L5.38425 7.93066L5.24475 7.85674L5.11805 7.95092L5.26719 8.15156ZM8.45391 9.84023L8.70356 9.82714L8.69615 9.68567L8.57096 9.61933L8.45391 9.84023ZM8.80078 16.4559L8.55103 16.469L8.55158 16.4758L8.80078 16.4559ZM8.80703 16.4844L8.98287 16.6621L9.06983 16.576L9.05525 16.4546L8.80703 16.4844ZM5.79531 19.4645L5.97074 19.6426L5.97115 19.6422L5.79531 19.4645ZM5.73711 19.5512L5.63856 19.7809L5.84352 19.8688L5.95417 19.6752L5.73711 19.5512ZM2.84922 18.3125L2.94777 18.0827L2.9477 18.0827L2.84922 18.3125ZM2.81602 18.3055L2.58816 18.4083L2.63383 18.5095L2.73951 18.5435L2.81602 18.3055ZM3.37422 19.3875L3.47274 19.1577L2.77637 18.8591L3.1583 19.5135L3.37422 19.3875ZM5.48945 20.2945L5.70982 20.1765L5.66846 20.0993L5.58798 20.0648L5.48945 20.2945ZM7.10703 23.3137L6.97022 23.5229L7.3274 23.1956L7.10703 23.3137ZM8.3582 24.0277L8.11854 24.0989L8.14973 24.204L8.24814 24.2522L8.3582 24.0277ZM8.33555 23.9527L8.11518 24.0708L8.11566 24.0717L8.33555 23.9527ZM6.25859 20.0762L6.13548 19.8586L5.92285 19.9789L6.03823 20.1942L6.25859 20.0762ZM6.34453 20.0195L6.1687 19.8418L6.16775 19.8428L6.34453 20.0195ZM9.48008 16.9172L9.5448 16.6757L9.40623 16.6386L9.30424 16.7395L9.48008 16.9172ZM15.1469 18.4359L15.3613 18.3073L15.3092 18.2206L15.2116 18.1945L15.1469 18.4359ZM17.4621 22.2949L17.2477 22.4235L17.248 22.4239L17.4621 22.2949ZM17.5316 22.3797L17.7275 22.5351L17.8714 22.3537L17.7015 22.1963L17.5316 22.3797ZM15.4031 25.0621L15.4435 25.3088L15.5389 25.2932L15.599 25.2175L15.4031 25.0621ZM13.5 0.75C6.46935 0.75 0.75 6.46935 0.75 13.5H1.25C1.25 6.74549 6.74549 1.25 13.5 1.25V0.75ZM0.75 13.5C0.75 20.5306 6.46935 26.25 13.5 26.25V25.75C6.74549 25.75 1.25 20.2545 1.25 13.5H0.75ZM13.5 26.25C20.5306 26.25 26.25 20.5306 26.25 13.5H25.75C25.75 20.2545 20.2545 25.75 13.5 25.75V26.25ZM26.25 13.5C26.25 6.46935 20.5306 0.75 13.5 0.75V1.25C20.2545 1.25 25.75 6.74549 25.75 13.5H26.25ZM25.2859 15.2189L23.7684 12.7037L23.3402 12.962L24.8578 15.4772L25.2859 15.2189ZM23.791 12.9133L24.8382 9.83521L24.3649 9.67416L23.3176 12.7523L23.791 12.9133ZM24.3647 9.83478C24.7543 10.9868 24.9688 12.2183 24.9688 13.5H25.4688C25.4688 12.1621 25.2449 10.8765 24.8384 9.67459L24.3647 9.83478ZM24.9688 13.5C24.9688 14.1153 24.9187 14.719 24.825 15.3088L25.3188 15.3873C25.4165 14.7724 25.4688 14.1425 25.4688 13.5H24.9688ZM22.1815 21.1867C22.1013 21.1662 22.0125 21.1593 21.9199 21.1744L22.0004 21.6678C22.018 21.665 22.037 21.6658 22.0576 21.6711L22.1815 21.1867ZM21.9206 21.1742L18.1401 21.7805L18.2193 22.2742L21.9997 21.6679L21.9206 21.1742ZM18.4258 21.9835C18.4141 21.9178 18.392 21.8399 18.3455 21.7631L17.9178 22.0221C17.9229 22.0304 17.9289 22.0447 17.9336 22.0711L18.4258 21.9835ZM18.346 21.764L16.1968 18.1819L15.768 18.4392L17.9173 22.0212L18.346 21.764ZM16.1921 18.4467L19.6671 13.0951L19.2477 12.8228L15.7727 18.1744L16.1921 18.4467ZM19.4574 13.209H22.7496V12.709H19.4574V13.209ZM22.5051 13.0111C22.5133 13.0494 22.5292 13.1307 22.5761 13.2092L23.0052 12.9526C23.0069 12.9555 23.0062 12.9552 23.0039 12.948C23.0013 12.9395 22.9987 12.9286 22.9941 12.9069L22.5051 13.0111ZM22.5766 13.21L24.6219 16.5999L25.05 16.3415L23.0047 12.9517L22.5766 13.21ZM24.5941 16.4073C24.1129 18.2437 23.1856 19.9021 21.9356 21.2596L22.3034 21.5983C23.6073 20.1823 24.5753 18.4516 25.0778 16.5341L24.5941 16.4073ZM18.2196 23.0652L21.2228 22.584L21.1436 22.0903L18.1405 22.5715L18.2196 23.0652ZM21.019 22.1486C19.7427 23.2597 18.22 24.0934 16.5441 24.5555L16.677 25.0375C18.4269 24.555 20.0159 23.6848 21.3474 22.5257L21.019 22.1486ZM16.8064 24.9519L18.3759 22.9737L17.9842 22.663L16.4147 24.6411L16.8064 24.9519ZM6.10291 4.74552C8.03598 3.10952 10.5148 2.10281 13.2239 2.03821L13.212 1.53835C10.3845 1.60578 7.79683 2.65689 5.7799 4.36386L6.10291 4.74552ZM12.984 1.87643C13.0137 1.95516 13.0606 2.04164 13.1398 2.11664L13.4837 1.75367C13.4738 1.7443 13.4629 1.72922 13.4519 1.70013L12.984 1.87643ZM13.1401 2.11698L15.2983 4.15369L15.6415 3.79006L13.4833 1.75334L13.1401 2.11698ZM15.2284 3.90718L14.3749 7.09312L14.8579 7.22251L15.7114 4.03657L15.2284 3.90718ZM14.5268 6.92442L8.96549 9.05918L9.14467 9.52597L14.706 7.39121L14.5268 6.92442ZM9.21216 9.09809C9.21388 9.09948 9.21406 9.09978 9.21087 9.0968C9.2105 9.09646 9.20024 9.08677 9.19486 9.08186C9.18004 9.06834 9.15139 9.04313 9.11106 9.02197L8.87878 9.46475C8.86228 9.45609 8.85355 9.44729 8.85778 9.45115C8.85869 9.45199 8.85991 9.45312 8.86206 9.45514C8.86379 9.45677 8.86706 9.45986 8.87005 9.46265C8.87632 9.46849 8.88612 9.47748 8.89799 9.48706L9.21216 9.09809ZM9.11199 9.02247L5.64715 7.18614L5.41301 7.62793L8.87785 9.46425L9.11199 9.02247ZM5.77752 7.44271L6.18885 4.59037L5.69397 4.51901L5.28264 7.37135L5.77752 7.44271ZM16.1661 3.21037L14.4931 1.63146L14.1499 1.9951L15.8229 3.57401L16.1661 3.21037ZM14.3041 2.06268C15.8014 2.16706 17.2202 2.557 18.5045 3.18293L18.7236 2.73347C17.3822 2.07972 15.9009 1.67278 14.3389 1.56389L14.3041 2.06268ZM18.5732 2.71156L15.9537 3.14555L16.0354 3.63883L18.6549 3.20484L18.5732 2.71156ZM9.81606 16.1185L9.49731 10.0428L8.998 10.069L9.31675 16.1447L9.81606 16.1185ZM9.33727 10.2892L15.0173 8.10839L14.8381 7.64161L9.15805 9.82247L9.33727 10.2892ZM14.7334 8.03233L18.5627 12.7612L18.9513 12.4466L15.122 7.71767L14.7334 8.03233ZM18.5474 12.4677L15.2337 17.5705L15.653 17.8428L18.9667 12.7401L18.5474 12.4677ZM15.5081 17.4652L9.63112 15.8902L9.50169 16.3731L15.3786 17.9481L15.5081 17.4652ZM23.9492 8.53022C23.9505 8.5279 23.9511 8.52724 23.949 8.53032C23.9479 8.53201 23.9469 8.53344 23.9448 8.53653C23.943 8.53917 23.9404 8.54289 23.9377 8.54699C23.9272 8.56303 23.9076 8.59389 23.8933 8.63542L24.3661 8.79817C24.36 8.81587 24.3525 8.82623 24.355 8.82244C24.3556 8.82158 24.3564 8.82039 24.3579 8.81813C24.3592 8.8163 24.3616 8.81282 24.3638 8.80956C24.3684 8.80274 24.3754 8.79203 24.3828 8.77915L23.9492 8.53022ZM23.893 8.63626L22.7153 12.0972L23.1886 12.2583L24.3664 8.79733L23.893 8.63626ZM22.952 11.9277H19.4176V12.4277H22.952V11.9277ZM19.6119 12.0204L15.6013 7.06806L15.2127 7.38273L19.2233 12.3351L19.6119 12.0204ZM15.6485 7.29009L16.4739 4.20923L15.9909 4.07984L15.1655 7.1607L15.6485 7.29009ZM16.2733 4.39117L19.5038 3.85562L19.422 3.36235L16.1915 3.8979L16.2733 4.39117ZM19.5035 3.85566C19.6296 3.83489 19.7261 3.77501 19.796 3.71905L19.4837 3.32861C19.4521 3.3539 19.4337 3.36042 19.4222 3.36231L19.5035 3.85566ZM19.5084 3.73651C21.4392 4.9294 22.9897 6.67871 23.9386 8.75846L24.3935 8.55092C23.4033 6.38067 21.7858 4.55576 19.7712 3.31115L19.5084 3.73651ZM4.78029 5.38111L4.46701 7.55338L4.96189 7.62475L5.27517 5.45248L4.78029 5.38111ZM4.56534 7.3884L2.47588 8.94114L2.77412 9.34246L4.86357 7.78972L4.56534 7.3884ZM2.85695 9.23506C3.40546 7.87088 4.20863 6.63639 5.20853 5.58947L4.84694 5.24413C3.80387 6.33626 2.96564 7.62444 2.39305 9.04854L2.85695 9.23506ZM2.30956 10.6462C2.30754 10.6472 2.30682 10.6475 2.30965 10.6462C2.30986 10.6461 2.31952 10.6418 2.32487 10.6393C2.33929 10.6327 2.3666 10.6195 2.3957 10.5975L2.09414 10.1986C2.10723 10.1887 2.11754 10.1843 2.11468 10.1857C2.11407 10.1859 2.11312 10.1864 2.11121 10.1872C2.10978 10.1879 2.10657 10.1893 2.10384 10.1905C2.09797 10.1932 2.08855 10.1975 2.07794 10.2031L2.30956 10.6462ZM2.39406 10.5987L5.41633 8.3522L5.11805 7.95092L2.09578 10.1974L2.39406 10.5987ZM5.15013 8.37246L8.33685 10.0611L8.57096 9.61933L5.38425 7.93066L5.15013 8.37246ZM8.20425 9.85332L8.55112 16.469L9.05044 16.4428L8.70356 9.82714L8.20425 9.85332ZM8.55158 16.4758C8.55297 16.4932 8.55572 16.5077 8.55798 16.5178C8.56013 16.5273 8.56243 16.5354 8.5631 16.5378C8.56429 16.5421 8.56353 16.5394 8.56284 16.5366C8.56195 16.533 8.5601 16.5249 8.55881 16.5142L9.05525 16.4546C9.05337 16.4389 9.05055 16.4261 9.0485 16.4177C9.04746 16.4135 9.04649 16.4099 9.04581 16.4074C9.04522 16.4053 9.04453 16.4028 9.04442 16.4024C9.04377 16.4001 9.04478 16.4035 9.04586 16.4084C9.04707 16.4137 9.04898 16.4234 9.04998 16.4359L8.55158 16.4758ZM8.63119 16.3067L5.61947 19.2867L5.97115 19.6422L8.98287 16.6621L8.63119 16.3067ZM5.61989 19.2863C5.56263 19.3427 5.52606 19.4166 5.52005 19.4271L5.95417 19.6752C5.95695 19.6703 5.95956 19.6657 5.96177 19.6617C5.96417 19.6574 5.96587 19.6544 5.96775 19.651C5.97138 19.6446 5.97357 19.6408 5.97522 19.6382C5.97842 19.633 5.97681 19.6366 5.97073 19.6426L5.61989 19.2863ZM5.83566 19.3214L2.94777 18.0827L2.75067 18.5423L5.63856 19.7809L5.83566 19.3214ZM2.9477 18.0827C2.90795 18.0657 2.87235 18.0616 2.86524 18.0607C2.85816 18.0597 2.86243 18.0603 2.86504 18.0607C2.86948 18.0615 2.87964 18.0633 2.89252 18.0675L2.73951 18.5435C2.75786 18.5494 2.77354 18.5524 2.78352 18.554C2.78853 18.5549 2.79277 18.5555 2.79538 18.5558C2.7967 18.556 2.79789 18.5561 2.7986 18.5562C2.79946 18.5563 2.79973 18.5564 2.79999 18.5564C2.80142 18.5566 2.79562 18.5559 2.78768 18.5542C2.779 18.5523 2.76595 18.5488 2.75074 18.5423L2.9477 18.0827ZM3.04387 18.2026C2.39549 16.7663 2.03125 15.1755 2.03125 13.5H1.53125C1.53125 15.2487 1.91154 16.9095 2.58816 18.4083L3.04387 18.2026ZM2.03125 13.5C2.03125 12.4584 2.17342 11.4504 2.43496 10.4903L1.95254 10.3589C1.6797 11.3605 1.53125 12.4127 1.53125 13.5H2.03125ZM3.27569 19.6173L5.39093 20.5243L5.58798 20.0648L3.47274 19.1577L3.27569 19.6173ZM5.26909 20.4126L6.88667 23.4317L7.3274 23.1956L5.70982 20.1765L5.26909 20.4126ZM7.24384 23.1044C5.74731 22.126 4.49318 20.8087 3.59013 19.2615L3.1583 19.5135C4.10057 21.128 5.40894 22.5021 6.97022 23.5229L7.24384 23.1044ZM8.59786 23.9566C8.59824 23.9578 8.59807 23.9575 8.59693 23.9526C8.59635 23.9501 8.59378 23.9385 8.59163 23.9298C8.58666 23.9097 8.57681 23.8733 8.55543 23.8338L8.11566 24.0717C8.10718 24.056 8.10494 24.0446 8.10623 24.0498C8.1065 24.0509 8.10686 24.0524 8.10747 24.0551C8.10784 24.0567 8.10903 24.0619 8.10976 24.0651C8.11155 24.0728 8.11446 24.0851 8.11854 24.0989L8.59786 23.9566ZM8.55591 23.8347L6.47896 19.9581L6.03823 20.1942L8.11518 24.0708L8.55591 23.8347ZM6.3817 20.2938C6.38935 20.2894 6.46474 20.2529 6.52131 20.1963L6.16775 19.8428C6.17413 19.8364 6.17811 19.8345 6.17319 19.8375C6.17058 19.8391 6.16691 19.8412 6.16031 19.8449C6.15522 19.8477 6.14449 19.8535 6.13548 19.8586L6.3817 20.2938ZM6.52036 20.1972L9.65591 17.0949L9.30424 16.7395L6.1687 19.8418L6.52036 20.1972ZM9.41536 17.1587L15.0822 18.6774L15.2116 18.1945L9.5448 16.6757L9.41536 17.1587ZM14.9325 18.5646L17.2477 22.4235L17.6765 22.1663L15.3613 18.3073L14.9325 18.5646ZM17.248 22.4239C17.2809 22.4786 17.3199 22.5243 17.3617 22.5631L17.7015 22.1963C17.6902 22.1858 17.6824 22.176 17.6763 22.1659L17.248 22.4239ZM17.3358 22.2243L15.2073 24.9067L15.599 25.2175L17.7275 22.5351L17.3358 22.2243ZM15.3627 24.8154C14.7555 24.9149 14.1338 24.9688 13.5 24.9688V25.4688C14.1623 25.4688 14.8109 25.4125 15.4435 25.3088L15.3627 24.8154ZM13.5 24.9688C11.6955 24.9688 9.9885 24.5487 8.46826 23.8033L8.24814 24.2522C9.83494 25.0302 11.617 25.4688 13.5 25.4688V24.9688Z" fill="#BCBCBC"/>
</svg>
