<svg width="32" height="28" viewBox="0 0 32 28" fill="none" xmlns="http://www.w3.org/2000/svg">
<path d="M22.9934 21.2132H9.00842C8.75751 21.2132 8.55386 21.0114 8.55386 20.7627V13.444C8.55386 11.3986 6.87472 9.73605 4.81193 9.73605C3.21098 9.73605 1.90912 11.0255 1.90912 12.6123C1.90912 13.8324 2.91006 14.8236 4.14009 14.8236C5.07376 14.8236 5.83378 14.0703 5.83378 13.1449C5.83378 12.4537 5.26649 11.8915 4.5692 11.8915C4.31828 11.8915 4.11464 11.6896 4.11464 11.4409C4.11464 11.1922 4.31828 10.9904 4.5692 10.9904C5.76742 10.9904 6.7429 11.9563 6.7429 13.1449C6.7429 14.5677 5.57559 15.7247 4.14009 15.7247C2.40913 15.7247 1 14.328 1 12.6123C1 10.529 2.71005 8.83496 4.81102 8.83496C7.37565 8.83496 9.46207 10.903 9.46207 13.444V20.3121H22.5388V13.444C22.5388 10.903 24.6253 8.83496 27.189 8.83496C29.2909 8.83496 31 10.5299 31 12.6123C31 14.328 29.5909 15.7247 27.8599 15.7247C26.4253 15.7247 25.258 14.5677 25.258 13.1449C25.258 11.9572 26.2326 10.9904 27.4308 10.9904C27.6817 10.9904 27.8854 11.1922 27.8854 11.4409C27.8854 11.6896 27.6817 11.8915 27.4308 11.8915C26.7335 11.8915 26.1671 12.4537 26.1671 13.1449C26.1671 14.0703 26.9262 14.8236 27.8599 14.8236C29.0909 14.8236 30.0909 13.8315 30.0909 12.6123C30.0909 11.0255 28.789 9.73605 27.189 9.73605C25.1253 9.73605 23.448 11.3995 23.448 13.444V20.7627C23.448 21.0114 23.2452 21.2132 22.9934 21.2132Z" fill="#BCBCBC"/>
<path d="M26.538 25.5376H5.56191C4.52734 25.5376 3.6864 24.7032 3.6864 23.6787V15.2751C3.6864 15.0264 3.89004 14.8246 4.14096 14.8246C4.39188 14.8246 4.59552 15.0264 4.59552 15.2751V23.6787C4.59552 24.2067 5.03008 24.6365 5.56191 24.6365H26.538C27.0707 24.6365 27.5044 24.2058 27.5044 23.6787V15.2751C27.5044 15.0264 27.708 14.8246 27.959 14.8246C28.2099 14.8246 28.4135 15.0264 28.4135 15.2751V23.6787C28.4135 24.7032 27.5726 25.5376 26.538 25.5376Z" fill="#BCBCBC"/>
<path d="M22.9934 17.398H9.00839C8.75748 17.398 8.55383 17.1962 8.55383 16.9475C8.55383 16.6988 8.75748 16.4969 9.00839 16.4969H22.9943C23.2452 16.4969 23.4488 16.6988 23.4488 16.9475C23.4488 17.1962 23.2452 17.398 22.9934 17.398Z" fill="#BCBCBC"/>
<path d="M9.00839 27C8.75748 27 8.55383 26.7982 8.55383 26.5495V25.4438C8.55383 25.1951 8.75748 24.9933 9.00839 24.9933C9.25931 24.9933 9.46295 25.1951 9.46295 25.4438V26.5495C9.46295 26.7982 9.25931 27 9.00839 27Z" fill="#BCBCBC"/>
<path d="M22.9934 27C22.7425 27 22.5388 26.7982 22.5388 26.5495V25.4438C22.5388 25.1951 22.7425 24.9933 22.9934 24.9933C23.2443 24.9933 23.4479 25.1951 23.4479 25.4438V26.5495C23.4479 26.7982 23.2452 27 22.9934 27Z" fill="#BCBCBC"/>
<path d="M26.058 9.73605C25.8071 9.73605 25.6034 9.53421 25.6034 9.28551V6.34886C25.6034 3.8961 23.5907 1.90109 21.116 1.90109H10.9821C8.50748 1.90109 6.49469 3.8961 6.49469 6.34886V9.28551C6.49469 9.53421 6.29105 9.73605 6.04013 9.73605C5.78921 9.73605 5.58557 9.53421 5.58557 9.28551V6.34886C5.58557 3.4005 8.00655 1 10.9821 1H21.116C24.0907 1 26.5126 3.3996 26.5126 6.34886V9.28551C26.5126 9.53421 26.3098 9.73605 26.058 9.73605Z" fill="#BCBCBC"/>
<path d="M4.81193 9.73605V9.58605V9.73605ZM9.46207 20.3121H9.31207V20.4621H9.46207V20.3121ZM22.5388 20.3121V20.4621H22.6888V20.3121H22.5388ZM26.5126 9.28551H26.6626H26.5126ZM22.9934 21.0632H9.00842V21.3632H22.9934V21.0632ZM9.00842 21.0632C8.83909 21.0632 8.70387 20.9273 8.70387 20.7627H8.40386C8.40386 21.0955 8.67592 21.3632 9.00842 21.3632V21.0632ZM8.70387 20.7627V13.444H8.40386V20.7627H8.70387ZM8.70387 13.444C8.70387 11.3144 6.95624 9.58605 4.81193 9.58605V9.88605C6.79321 9.88605 8.40386 11.4827 8.40386 13.444H8.70387ZM4.81193 9.58605C3.12945 9.58605 1.75912 10.9414 1.75912 12.6123H2.05912C2.05912 11.1097 3.2925 9.88605 4.81193 9.88605V9.58605ZM1.75912 12.6123C1.75912 13.9165 2.82851 14.9736 4.14009 14.9736V14.6736C2.9916 14.6736 2.05912 13.7483 2.05912 12.6123H1.75912ZM4.14009 14.9736C5.15534 14.9736 5.98378 14.1544 5.98378 13.1449H5.68378C5.68378 13.9862 4.99217 14.6736 4.14009 14.6736V14.9736ZM5.98378 13.1449C5.98378 12.3696 5.34808 11.7415 4.5692 11.7415V12.0415C5.18491 12.0415 5.68378 12.5378 5.68378 13.1449H5.98378ZM4.5692 11.7415C4.39987 11.7415 4.26464 11.6055 4.26464 11.4409H3.96464C3.96464 11.7737 4.2367 12.0415 4.5692 12.0415V11.7415ZM4.26464 11.4409C4.26464 11.2763 4.39987 11.1404 4.5692 11.1404V10.8404C4.2367 10.8404 3.96464 11.1081 3.96464 11.4409H4.26464ZM4.5692 11.1404C5.68587 11.1404 6.5929 12.0405 6.5929 13.1449H6.8929C6.8929 11.8722 5.84896 10.8404 4.5692 10.8404V11.1404ZM6.5929 13.1449C6.5929 14.4836 5.49401 15.5747 4.14009 15.5747V15.8747C5.65718 15.8747 6.8929 14.6518 6.8929 13.1449H6.5929ZM4.14009 15.5747C2.49072 15.5747 1.15 14.2439 1.15 12.6123H0.85C0.85 14.4121 2.32755 15.8747 4.14009 15.8747V15.5747ZM1.15 12.6123C1.15 10.6131 2.79161 8.98496 4.81102 8.98496V8.68496C2.62849 8.68496 0.85 10.4449 0.85 12.6123H1.15ZM4.81102 8.98496C7.29408 8.98496 9.31207 10.9871 9.31207 13.444H9.61207C9.61207 10.8188 7.45721 8.68496 4.81102 8.68496V8.98496ZM9.31207 13.444V20.3121H9.61207V13.444H9.31207ZM9.46207 20.4621H22.5388V20.1621H9.46207V20.4621ZM22.6888 20.3121V13.444H22.3888V20.3121H22.6888ZM22.6888 13.444C22.6888 10.9871 24.7068 8.98496 27.189 8.98496V8.68496C24.5437 8.68496 22.3888 10.8189 22.3888 13.444H22.6888ZM27.189 8.98496C29.2092 8.98496 30.85 10.614 30.85 12.6123H31.15C31.15 10.4458 29.3725 8.68496 27.189 8.68496V8.98496ZM30.85 12.6123C30.85 14.2439 29.5093 15.5747 27.8599 15.5747V15.8747C29.6725 15.8747 31.15 14.4121 31.15 12.6123H30.85ZM27.8599 15.5747C26.5069 15.5747 25.408 14.4836 25.408 13.1449H25.108C25.108 14.6517 26.3437 15.8747 27.8599 15.8747V15.5747ZM25.408 13.1449C25.408 12.0412 26.3143 11.1404 27.4308 11.1404V10.8404C26.1509 10.8404 25.108 11.8732 25.108 13.1449H25.408ZM27.4308 11.1404C27.6001 11.1404 27.7354 11.2763 27.7354 11.4409H28.0354C28.0354 11.1081 27.7633 10.8404 27.4308 10.8404V11.1404ZM27.7354 11.4409C27.7354 11.6055 27.6001 11.7415 27.4308 11.7415V12.0415C27.7633 12.0415 28.0354 11.7737 28.0354 11.4409H27.7354ZM27.4308 11.7415C26.6518 11.7415 26.0171 12.3698 26.0171 13.1449H26.3171C26.3171 12.5377 26.8152 12.0415 27.4308 12.0415V11.7415ZM26.0171 13.1449C26.0171 14.1543 26.8446 14.9736 27.8599 14.9736V14.6736C27.0079 14.6736 26.3171 13.9863 26.3171 13.1449H26.0171ZM27.8599 14.9736C29.1725 14.9736 30.2409 13.9156 30.2409 12.6123H29.9409C29.9409 13.7474 29.0092 14.6736 27.8599 14.6736V14.9736ZM30.2409 12.6123C30.2409 10.9414 28.8706 9.58605 27.189 9.58605V9.88605C28.7075 9.88605 29.9409 11.1096 29.9409 12.6123H30.2409ZM27.189 9.58605C25.0437 9.58605 23.298 11.3154 23.298 13.444H23.598C23.598 11.4835 25.2069 9.88605 27.189 9.88605V9.58605ZM23.298 13.444V20.7627H23.598V13.444H23.298ZM23.298 20.7627C23.298 20.9275 23.1634 21.0632 22.9934 21.0632V21.3632C23.327 21.3632 23.598 21.0953 23.598 20.7627H23.298ZM26.538 25.3876H5.56191V25.6876H26.538V25.3876ZM5.56191 25.3876C4.60897 25.3876 3.8364 24.6192 3.8364 23.6787H3.5364C3.5364 24.7873 4.4457 25.6876 5.56191 25.6876V25.3876ZM3.8364 23.6787V15.2751H3.5364V23.6787H3.8364ZM3.8364 15.2751C3.8364 15.1105 3.97163 14.9746 4.14096 14.9746V14.6746C3.80846 14.6746 3.5364 14.9423 3.5364 15.2751H3.8364ZM4.14096 14.9746C4.31029 14.9746 4.44552 15.1105 4.44552 15.2751H4.74552C4.74552 14.9423 4.47346 14.6746 4.14096 14.6746V14.9746ZM4.44552 15.2751V23.6787H4.74552V15.2751H4.44552ZM4.44552 23.6787C4.44552 24.2909 4.94859 24.7865 5.56191 24.7865V24.4865C5.11157 24.4865 4.74552 24.1225 4.74552 23.6787H4.44552ZM5.56191 24.7865H26.538V24.4865H5.56191V24.7865ZM26.538 24.7865C27.1524 24.7865 27.6544 24.2898 27.6544 23.6787H27.3544C27.3544 24.1218 26.9891 24.4865 26.538 24.4865V24.7865ZM27.6544 23.6787V15.2751H27.3544V23.6787H27.6544ZM27.6544 15.2751C27.6544 15.1105 27.7896 14.9746 27.959 14.9746V14.6746C27.6265 14.6746 27.3544 14.9423 27.3544 15.2751H27.6544ZM27.959 14.9746C28.1283 14.9746 28.2635 15.1105 28.2635 15.2751H28.5635C28.5635 14.9423 28.2915 14.6746 27.959 14.6746V14.9746ZM28.2635 15.2751V23.6787H28.5635V15.2751H28.2635ZM28.2635 23.6787C28.2635 24.6192 27.4909 25.3876 26.538 25.3876V25.6876C27.6542 25.6876 28.5635 24.7873 28.5635 23.6787H28.2635ZM22.9934 17.248H9.00839V17.548H22.9934V17.248ZM9.00839 17.248C8.83906 17.248 8.70383 17.1121 8.70383 16.9475H8.40383C8.40383 17.2803 8.67589 17.548 9.00839 17.548V17.248ZM8.70383 16.9475C8.70383 16.7829 8.83906 16.6469 9.00839 16.6469V16.3469C8.67589 16.3469 8.40383 16.6147 8.40383 16.9475H8.70383ZM9.00839 16.6469H22.9943V16.3469H9.00839V16.6469ZM22.9943 16.6469C23.1636 16.6469 23.2988 16.7829 23.2988 16.9475H23.5988C23.5988 16.6147 23.3268 16.3469 22.9943 16.3469V16.6469ZM23.2988 16.9475C23.2988 17.1119 23.1638 17.248 22.9934 17.248V17.548C23.3266 17.548 23.5988 17.2805 23.5988 16.9475H23.2988ZM9.00839 26.85C8.83906 26.85 8.70383 26.7141 8.70383 26.5495H8.40383C8.40383 26.8823 8.67589 27.15 9.00839 27.15V26.85ZM8.70383 26.5495V25.4438H8.40383V26.5495H8.70383ZM8.70383 25.4438C8.70383 25.2792 8.83906 25.1433 9.00839 25.1433V24.8433C8.67589 24.8433 8.40383 25.111 8.40383 25.4438H8.70383ZM9.00839 25.1433C9.17772 25.1433 9.31295 25.2792 9.31295 25.4438H9.61295C9.61295 25.111 9.34089 24.8433 9.00839 24.8433V25.1433ZM9.31295 25.4438V26.5495H9.61295V25.4438H9.31295ZM9.31295 26.5495C9.31295 26.7141 9.17772 26.85 9.00839 26.85V27.15C9.34089 27.15 9.61295 26.8823 9.61295 26.5495H9.31295ZM22.9934 26.85C22.824 26.85 22.6888 26.7141 22.6888 26.5495H22.3888C22.3888 26.8823 22.6609 27.15 22.9934 27.15V26.85ZM22.6888 26.5495V25.4438H22.3888V26.5495H22.6888ZM22.6888 25.4438C22.6888 25.2792 22.824 25.1433 22.9934 25.1433V24.8433C22.6609 24.8433 22.3888 25.111 22.3888 25.4438H22.6888ZM22.9934 25.1433C23.1627 25.1433 23.2979 25.2792 23.2979 25.4438H23.5979C23.5979 25.111 23.3259 24.8433 22.9934 24.8433V25.1433ZM23.2979 25.4438V26.5495H23.5979V25.4438H23.2979ZM23.2979 26.5495C23.2979 26.7143 23.1634 26.85 22.9934 26.85V27.15C23.327 27.15 23.5979 26.8821 23.5979 26.5495H23.2979ZM26.058 9.58605C25.8887 9.58605 25.7534 9.45011 25.7534 9.28551H25.4534C25.4534 9.6183 25.7255 9.88605 26.058 9.88605V9.58605ZM25.7534 9.28551V6.34886H25.4534V9.28551H25.7534ZM25.7534 6.34886C25.7534 3.812 23.6722 1.75109 21.116 1.75109V2.05109C23.5091 2.05109 25.4534 3.98019 25.4534 6.34886H25.7534ZM21.116 1.75109H10.9821V2.05109H21.116V1.75109ZM10.9821 1.75109C8.42589 1.75109 6.34469 3.812 6.34469 6.34886H6.64469C6.64469 3.98019 8.58906 2.05109 10.9821 2.05109V1.75109ZM6.34469 6.34886V9.28551H6.64469V6.34886H6.34469ZM6.34469 9.28551C6.34469 9.45011 6.20946 9.58605 6.04013 9.58605V9.88605C6.37263 9.88605 6.64469 9.6183 6.64469 9.28551H6.34469ZM6.04013 9.58605C5.8708 9.58605 5.73557 9.45011 5.73557 9.28551H5.43557C5.43557 9.6183 5.70763 9.88605 6.04013 9.88605V9.58605ZM5.73557 9.28551V6.34886H5.43557V9.28551H5.73557ZM5.73557 6.34886C5.73557 3.48458 8.08815 1.15 10.9821 1.15V0.85C7.92495 0.85 5.43557 3.31642 5.43557 6.34886H5.73557ZM10.9821 1.15H21.116V0.85H10.9821V1.15ZM21.116 1.15C24.0091 1.15 26.3626 3.48371 26.3626 6.34886H26.6626C26.6626 3.31549 24.1722 0.85 21.116 0.85V1.15ZM26.3626 6.34886V9.28551H26.6626V6.34886H26.3626ZM26.3626 9.28551C26.3626 9.45031 26.2281 9.58605 26.058 9.58605V9.88605C26.3916 9.88605 26.6626 9.61811 26.6626 9.28551H26.3626Z" fill="#BCBCBC"/>
</svg>
