<svg width="29" height="29" viewBox="0 0 29 29" fill="none" xmlns="http://www.w3.org/2000/svg">
<path d="M14.5 13.15C13.0112 13.15 11.8 14.3611 11.8 15.85C11.8 17.3389 13.0112 18.55 14.5 18.55C15.9889 18.55 17.2 17.3389 17.2 15.85C17.2 14.3611 15.9889 13.15 14.5 13.15ZM14.5 17.65C13.5075 17.65 12.7 16.8427 12.7 15.85C12.7 14.8573 13.5075 14.05 14.5 14.05C15.4926 14.05 16.3 14.8573 16.3 15.85C16.3 16.8427 15.4926 17.65 14.5 17.65Z" fill="#BCBCBC"/>
<path d="M14.5 1C7.0561 1 1 7.0561 1 14.5C1 21.9439 7.0561 28 14.5 28C21.9439 28 28 21.9439 28 14.5C28 7.0561 21.9439 1 14.5 1ZM14.5 27.1C7.55223 27.1 1.9 21.4478 1.9 14.5C1.9 7.55223 7.55223 1.9 14.5 1.9C21.4478 1.9 27.1 7.55223 27.1 14.5C27.1 21.4478 21.4478 27.1 14.5 27.1Z" fill="#BCBCBC"/>
<path d="M14.5 3.69995C8.54493 3.69995 3.69995 8.54493 3.69995 14.5C3.69995 20.455 8.54493 25.3 14.5 25.3C20.455 25.3 25.3 20.455 25.3 14.5C25.3 8.54493 20.455 3.69995 14.5 3.69995ZM14.5 4.59995C18.7066 4.59995 22.3064 7.23836 23.7378 10.9464L20.3663 12.0702C19.2098 12.4556 17.9596 12.3954 16.8449 11.8997C15.3547 11.237 13.645 11.237 12.1553 11.8997L11.9848 11.9753C10.9714 12.4262 9.82248 12.5171 8.74974 12.2311L5.144 11.2695C6.48658 7.39254 10.1721 4.59995 14.5 4.59995ZM4.59995 14.5C4.59995 14.4083 4.60439 14.3176 4.60693 14.2266L4.91945 14.3308C9.35623 15.8096 12.4939 19.6859 13.052 24.293C8.27718 23.5901 4.59995 19.4669 4.59995 14.5ZM14.5 24.4C14.3212 24.4 14.1438 24.3946 13.9674 24.3852C13.4356 19.3451 10.037 15.088 5.20419 13.4773L4.6751 13.301C4.72331 12.9039 4.79424 12.5138 4.88818 12.1324L8.51765 13.1003C9.0041 13.23 9.50354 13.2946 10.0025 13.2946C10.8067 13.2946 11.609 13.1276 12.3501 12.798L12.5206 12.7224C13.7783 12.1625 15.221 12.163 16.4805 12.7228C17.7999 13.3086 19.2809 13.3807 20.6509 12.9237L24.0225 11.7998C24.1606 12.2862 24.2624 12.7875 24.3247 13.301L23.7956 13.4773C18.9628 15.088 15.5642 19.3451 15.0324 24.3852C14.8561 24.3946 14.6787 24.4 14.5 24.4ZM15.9479 24.293C16.5061 19.6859 19.6437 15.8096 24.0805 14.3308L24.393 14.2266C24.3955 14.3176 24.4 14.4083 24.4 14.5C24.4 19.4669 20.7227 23.5901 15.9479 24.293Z" fill="#BCBCBC"/>
<path d="M23.7378 10.9464L23.7852 11.0887L23.9343 11.039L23.8777 10.8923L23.7378 10.9464ZM20.3663 12.0702L20.4137 12.2125L20.4137 12.2125L20.3663 12.0702ZM16.8449 11.8997L16.784 12.0367L16.784 12.0367L16.8449 11.8997ZM12.1553 11.8997L12.2161 12.0368L12.2162 12.0367L12.1553 11.8997ZM11.9848 11.9753L11.924 11.8382L11.9238 11.8382L11.9848 11.9753ZM8.74974 12.2311L8.78839 12.0861L8.78839 12.0861L8.74974 12.2311ZM5.144 11.2695L5.00226 11.2204L4.94947 11.3729L5.10535 11.4144L5.144 11.2695ZM4.60693 14.2266L4.65436 14.0843L4.4626 14.0204L4.45698 14.2224L4.60693 14.2266ZM4.91945 14.3308L4.87202 14.4731L4.87202 14.4731L4.91945 14.3308ZM13.052 24.293L13.0302 24.4414L13.2246 24.47L13.2009 24.275L13.052 24.293ZM13.9674 24.3852L13.8182 24.401L13.8316 24.5282L13.9594 24.535L13.9674 24.3852ZM5.20419 13.4773L5.15676 13.6196H5.15676L5.20419 13.4773ZM4.6751 13.301L4.52619 13.2829L4.51143 13.4045L4.62767 13.4433L4.6751 13.301ZM4.88818 12.1324L4.92683 11.9875L4.7791 11.9481L4.74253 12.0966L4.88818 12.1324ZM8.51765 13.1003L8.479 13.2453L8.47902 13.2453L8.51765 13.1003ZM12.3501 12.798L12.2893 12.6609L12.2891 12.6609L12.3501 12.798ZM12.5206 12.7224L12.5814 12.8595L12.5816 12.8594L12.5206 12.7224ZM16.4805 12.7228L16.4195 12.8599L16.4196 12.8599L16.4805 12.7228ZM20.6509 12.9237L20.6035 12.7814L20.6034 12.7814L20.6509 12.9237ZM24.0225 11.7998L24.1667 11.7588L24.1239 11.6079L23.975 11.6575L24.0225 11.7998ZM24.3247 13.301L24.3721 13.4433L24.4884 13.4045L24.4736 13.2829L24.3247 13.301ZM23.7956 13.4773L23.843 13.6196L23.843 13.6196L23.7956 13.4773ZM15.0324 24.3852L15.0404 24.535L15.1682 24.5282L15.1816 24.401L15.0324 24.3852ZM15.9479 24.293L15.799 24.275L15.7754 24.47L15.9698 24.4414L15.9479 24.293ZM24.0805 14.3308L24.1279 14.4731L24.1279 14.4731L24.0805 14.3308ZM24.393 14.2266L24.543 14.2225L24.5375 14.0203L24.3456 14.0843L24.393 14.2266ZM24.4 14.5L24.55 14.5V14.5H24.4ZM14.5 13C12.9283 13 11.65 14.2783 11.65 15.85H11.95C11.95 14.444 13.094 13.3 14.5 13.3V13ZM11.65 15.85C11.65 17.4217 12.9283 18.7 14.5 18.7V18.4C13.094 18.4 11.95 17.2561 11.95 15.85H11.65ZM14.5 18.7C16.0718 18.7 17.35 17.4217 17.35 15.85H17.05C17.05 17.2561 15.9061 18.4 14.5 18.4V18.7ZM17.35 15.85C17.35 14.2783 16.0718 13 14.5 13V13.3C15.9061 13.3 17.05 14.444 17.05 15.85H17.35ZM14.5 17.5C13.5904 17.5 12.85 16.7599 12.85 15.85H12.55C12.55 16.9256 13.4247 17.8 14.5 17.8V17.5ZM12.85 15.85C12.85 14.9402 13.5904 14.2 14.5 14.2V13.9C13.4247 13.9 12.55 14.7745 12.55 15.85H12.85ZM14.5 14.2C15.4097 14.2 16.15 14.9402 16.15 15.85H16.45C16.45 14.7745 15.5754 13.9 14.5 13.9V14.2ZM16.15 15.85C16.15 16.7599 15.4097 17.5 14.5 17.5V17.8C15.5754 17.8 16.45 16.9256 16.45 15.85H16.15ZM14.5 0.85C6.97326 0.85 0.85 6.97326 0.85 14.5H1.15C1.15 7.13894 7.13894 1.15 14.5 1.15V0.85ZM0.85 14.5C0.85 22.0267 6.97326 28.15 14.5 28.15V27.85C7.13894 27.85 1.15 21.8611 1.15 14.5H0.85ZM14.5 28.15C22.0267 28.15 28.15 22.0267 28.15 14.5H27.85C27.85 21.8611 21.8611 27.85 14.5 27.85V28.15ZM28.15 14.5C28.15 6.97326 22.0267 0.85 14.5 0.85V1.15C21.8611 1.15 27.85 7.13894 27.85 14.5H28.15ZM14.5 26.95C7.63507 26.95 2.05 21.3649 2.05 14.5H1.75C1.75 21.5306 7.46938 27.25 14.5 27.25V26.95ZM2.05 14.5C2.05 7.63507 7.63507 2.05 14.5 2.05V1.75C7.46938 1.75 1.75 7.46938 1.75 14.5H2.05ZM14.5 2.05C21.3649 2.05 26.95 7.63507 26.95 14.5H27.25C27.25 7.46938 21.5306 1.75 14.5 1.75V2.05ZM26.95 14.5C26.95 21.3649 21.3649 26.95 14.5 26.95V27.25C21.5306 27.25 27.25 21.5306 27.25 14.5H26.95ZM14.5 3.54995C8.46209 3.54995 3.54995 8.46209 3.54995 14.5H3.84995C3.84995 8.62778 8.62778 3.84995 14.5 3.84995V3.54995ZM3.54995 14.5C3.54995 20.5378 8.46209 25.45 14.5 25.45V25.15C8.62778 25.15 3.84995 20.3721 3.84995 14.5H3.54995ZM14.5 25.45C20.5378 25.45 25.45 20.5378 25.45 14.5H25.15C25.15 20.3721 20.3721 25.15 14.5 25.15V25.45ZM25.45 14.5C25.45 8.46209 20.5378 3.54995 14.5 3.54995V3.84995C20.3721 3.84995 25.15 8.62778 25.15 14.5H25.45ZM14.5 4.74995C18.6423 4.74995 22.1879 7.34806 23.5978 11.0004L23.8777 10.8923C22.4248 7.12865 18.7709 4.44995 14.5 4.44995V4.74995ZM23.6903 10.8041L20.3188 11.9279L20.4137 12.2125L23.7852 11.0887L23.6903 10.8041ZM20.3188 11.9279C19.1979 12.3015 17.9863 12.2431 16.9058 11.7626L16.784 12.0367C17.9329 12.5476 19.2217 12.6097 20.4137 12.2125L20.3188 11.9279ZM16.9059 11.7626C15.3769 11.0827 13.6229 11.0827 12.0943 11.7626L12.2162 12.0367C13.6672 11.3913 15.3326 11.3913 16.784 12.0367L16.9059 11.7626ZM12.0945 11.7626L11.924 11.8382L12.0456 12.1124L12.2161 12.0368L12.0945 11.7626ZM11.9238 11.8382C10.9418 12.2752 9.82802 12.3634 8.78839 12.0861L8.71109 12.376C9.81695 12.6709 11.001 12.5772 12.0458 12.1123L11.9238 11.8382ZM8.78839 12.0861L5.18265 11.1246L5.10535 11.4144L8.71109 12.376L8.78839 12.0861ZM5.28574 11.3186C6.60812 7.49994 10.2382 4.74995 14.5 4.74995V4.44995C10.106 4.44995 6.36503 7.28514 5.00226 11.2204L5.28574 11.3186ZM4.74995 14.5C4.74995 14.411 4.75422 14.3261 4.75687 14.2307L4.45698 14.2224C4.45457 14.3092 4.44995 14.4056 4.44995 14.5H4.74995ZM4.55949 14.3689L4.87202 14.4731L4.96689 14.1884L4.65436 14.0843L4.55949 14.3689ZM4.87202 14.4731C9.2535 15.9335 12.3519 19.7612 12.9031 24.3111L13.2009 24.275C12.6359 19.6106 9.45896 15.6857 4.96688 14.1884L4.87202 14.4731ZM13.0739 24.1446C8.37144 23.4524 4.74995 19.3913 4.74995 14.5H4.44995C4.44995 19.5426 8.18293 23.7279 13.0302 24.4414L13.0739 24.1446ZM14.5 24.25C14.3242 24.25 14.1494 24.2447 13.9754 24.2354L13.9594 24.535C14.1381 24.5445 14.3183 24.55 14.5 24.55V24.25ZM14.1165 24.3695C13.5786 19.2712 10.1404 14.9644 5.25162 13.335L5.15676 13.6196C9.93348 15.2116 13.2926 19.4191 13.8182 24.401L14.1165 24.3695ZM5.25162 13.335L4.72253 13.1587L4.62767 13.4433L5.15676 13.6196L5.25162 13.335ZM4.82401 13.3191C4.87151 12.9277 4.94137 12.5436 5.03382 12.1683L4.74253 12.0966C4.6471 12.4839 4.57511 12.88 4.52619 13.2829L4.82401 13.3191ZM4.84953 12.2774L8.479 13.2453L8.5563 12.9554L4.92683 11.9875L4.84953 12.2774ZM8.47902 13.2453C8.97818 13.3783 9.49061 13.4446 10.0025 13.4446V13.1446C9.51648 13.1446 9.03002 13.0817 8.55628 12.9554L8.47902 13.2453ZM10.0025 13.4446C10.8274 13.4446 11.6505 13.2733 12.411 12.9351L12.2891 12.6609C11.5675 12.9818 10.7861 13.1446 10.0025 13.1446V13.4446ZM12.4109 12.9351L12.5814 12.8595L12.4598 12.5853L12.2893 12.6609L12.4109 12.9351ZM12.5816 12.8594C13.8004 12.3169 15.1988 12.3173 16.4195 12.8599L16.5414 12.5858C15.2432 12.0087 13.7562 12.0082 12.4596 12.5854L12.5816 12.8594ZM16.4196 12.8599C17.7732 13.4609 19.2928 13.5348 20.6984 13.0659L20.6034 12.7814C19.269 13.2265 17.8266 13.1564 16.5413 12.5857L16.4196 12.8599ZM20.6983 13.066L24.0699 11.9421L23.975 11.6575L20.6035 12.7814L20.6983 13.066ZM23.8782 11.8408C24.0142 12.3197 24.1144 12.8134 24.1758 13.3191L24.4736 13.2829C24.4103 12.7616 24.307 12.2526 24.1667 11.7588L23.8782 11.8408ZM24.2773 13.1587L23.7482 13.335L23.843 13.6196L24.3721 13.4433L24.2773 13.1587ZM23.7482 13.335C18.8593 14.9644 15.4212 19.2712 14.8832 24.3695L15.1816 24.401C15.7072 19.419 19.0663 15.2116 23.843 13.6196L23.7482 13.335ZM15.0244 24.2354C14.8505 24.2447 14.6757 24.25 14.5 24.25V24.55C14.6816 24.55 14.8618 24.5445 15.0404 24.535L15.0244 24.2354ZM16.0969 24.3111C16.648 19.7612 19.7464 15.9335 24.1279 14.4731L24.0331 14.1884C19.5409 15.6857 16.3641 19.6106 15.799 24.275L16.0969 24.3111ZM24.1279 14.4731L24.4405 14.3689L24.3456 14.0843L24.0331 14.1884L24.1279 14.4731ZM24.2431 14.2307C24.2457 14.3263 24.25 14.4108 24.25 14.5H24.55C24.55 14.4057 24.5453 14.309 24.543 14.2225L24.2431 14.2307ZM24.25 14.4999C24.25 19.3913 20.6285 23.4524 15.9261 24.1446L15.9698 24.4414C20.817 23.7279 24.5499 19.5426 24.55 14.5L24.25 14.4999Z" fill="#BCBCBC"/>
</svg>
