<svg width="28" height="18" viewBox="0 0 28 18" fill="none" xmlns="http://www.w3.org/2000/svg">
<path d="M27.9849 12.4484C27.9152 10.8782 27.6362 9.13729 27.2177 7.4988C26.7992 5.92858 26.2761 4.46076 25.6483 3.33429C23.207 -0.864346 20.5565 -0.215775 17.3829 0.603472C16.3715 0.842419 15.2904 1.1155 14.1744 1.21791H13.8256C12.7096 1.1155 11.6285 0.842419 10.6171 0.603472C7.44346 -0.18164 4.79295 -0.864346 2.35169 3.36843C1.72393 4.49489 1.16593 5.96271 0.782304 7.53294C0.363802 9.17143 0.0848002 10.9123 0.0150498 12.4826C-0.0547006 14.2235 0.119675 15.4865 0.503302 16.374C0.886929 17.1932 1.44493 17.7053 2.17731 17.9101C2.83994 18.0807 3.60719 18.0125 4.40932 17.6711C5.76946 17.125 7.33884 15.9644 8.87335 14.5648C9.95448 13.5407 11.9772 13.0287 14 13.0287C16.0228 13.0287 18.0455 13.5407 19.1267 14.5648C20.6612 15.9644 22.2305 17.125 23.5907 17.6711C24.3928 17.9783 25.1601 18.0807 25.8227 17.9101C26.5202 17.7053 27.1131 17.2274 27.4967 16.3398C27.8803 15.4865 28.0547 14.2235 27.9849 12.4484ZM26.3109 15.8619C26.1017 16.3398 25.8227 16.6129 25.4739 16.7153C25.0903 16.8177 24.6021 16.7495 24.0441 16.5447C22.8234 16.0668 21.3935 15.0086 19.9985 13.7114C18.6733 12.4143 16.3366 11.7657 14 11.7657C11.6634 11.7657 9.32673 12.4143 7.96659 13.6432C6.53671 14.9403 5.10683 16.0326 3.92107 16.4764C3.36307 16.6812 2.87481 16.7836 2.49119 16.6471C2.14244 16.5447 1.86343 16.2716 1.65418 15.7937C1.37518 15.1451 1.23568 14.0869 1.30543 12.5167C1.37518 11.0489 1.61931 9.37624 2.03781 7.80602C2.42144 6.3382 2.90969 4.97279 3.50257 3.94873C5.4207 0.569336 7.65272 1.1155 10.3032 1.79821C11.3844 2.07129 12.5004 2.34437 13.721 2.44678C13.7559 2.44678 13.7559 2.44678 13.7907 2.44678H14.1744C14.2093 2.44678 14.2093 2.44678 14.2441 2.44678C15.4996 2.34437 16.6156 2.07129 17.6968 1.79821C20.3473 1.14964 22.5793 0.569336 24.4974 3.94873C25.0903 4.97279 25.5786 6.30406 25.9622 7.80602C26.3458 9.37624 26.6248 11.0147 26.6946 12.5167C26.7643 14.0869 26.6248 15.1451 26.3109 15.8619Z" fill="#BCBCBC"/>
<path d="M10.7915 5.79206C10.4427 5.48484 10.0242 5.24589 9.53596 5.21176C9.50108 4.768 9.29183 4.32424 8.97796 4.01702L8.94308 3.98289C8.55945 3.6074 8.0712 3.40259 7.5132 3.40259C6.95519 3.40259 6.43207 3.64153 6.08332 3.98289C5.76944 4.29011 5.52531 4.73386 5.49044 5.21176C5.00218 5.24589 4.58368 5.45071 4.23493 5.75792L4.20006 5.79206C3.81643 6.16755 3.60718 6.64544 3.60718 7.19161C3.60718 7.73777 3.8513 8.2498 4.20006 8.59115C4.54881 8.93251 4.96731 9.13732 5.49044 9.17145C5.52531 9.64935 5.73456 10.0931 6.08332 10.4003C6.46694 10.7758 6.95519 10.9806 7.5132 10.9806C8.0712 10.9806 8.59433 10.7417 8.94308 10.4003C9.25696 10.059 9.50108 9.64935 9.53596 9.17145C10.0242 9.13732 10.4776 8.93251 10.7915 8.59115C11.1751 8.21566 11.3843 7.73777 11.3843 7.19161C11.3843 6.64544 11.1402 6.13341 10.7915 5.79206ZM9.91959 7.70363C9.78009 7.84018 9.60571 7.90845 9.39646 7.90845H8.90821C8.55945 7.90845 8.24558 8.18153 8.24558 8.55702V9.00078C8.24558 9.20559 8.17583 9.37626 8.03633 9.5128C7.89682 9.64935 7.72245 9.71762 7.5132 9.71762C7.30395 9.71762 7.12957 9.64935 6.99007 9.5128C6.85057 9.37626 6.78082 9.20559 6.78082 9.00078V8.52288C6.78082 8.18153 6.50182 7.87431 6.11819 7.87431H5.62994C5.42069 7.87431 5.24631 7.80604 5.10681 7.6695C5.00219 7.56709 4.89756 7.39642 4.89756 7.19161C4.89756 6.98679 4.96731 6.81612 5.10681 6.67958C5.10681 6.67958 5.10681 6.67958 5.14169 6.64544C5.28119 6.54304 5.45556 6.47476 5.62994 6.47476H6.11819C6.46694 6.47476 6.78082 6.20168 6.78082 5.82619V5.3483C6.78082 5.14349 6.85057 4.97281 6.99007 4.83627C7.12957 4.69973 7.30395 4.63146 7.5132 4.63146C7.72245 4.63146 7.89682 4.69973 8.03633 4.83627C8.03633 4.83627 8.03633 4.83627 8.0712 4.87041C8.17583 5.00695 8.24558 5.17762 8.24558 5.3483V5.82619C8.24558 6.16755 8.52458 6.47476 8.90821 6.47476H9.39646C9.60571 6.47476 9.78009 6.54303 9.91959 6.67958C10.0591 6.81612 10.1288 6.98679 10.1288 7.19161C10.1288 7.39642 10.0591 7.56709 9.91959 7.70363Z" fill="#BCBCBC"/>
<path d="M20.0683 5.96271C20.7424 5.96271 21.2889 5.42781 21.2889 4.76798C21.2889 4.10814 20.7424 3.57324 20.0683 3.57324C19.3942 3.57324 18.8477 4.10814 18.8477 4.76798C18.8477 5.42781 19.3942 5.96271 20.0683 5.96271Z" fill="#BCBCBC"/>
<path d="M20.0683 10.8099C20.7424 10.8099 21.2889 10.275 21.2889 9.61515C21.2889 8.95531 20.7424 8.42041 20.0683 8.42041C19.3942 8.42041 18.8477 8.95531 18.8477 9.61515C18.8477 10.275 19.3942 10.8099 20.0683 10.8099Z" fill="#BCBCBC"/>
<path d="M17.5922 8.3863C18.2663 8.3863 18.8128 7.8514 18.8128 7.19156C18.8128 6.53173 18.2663 5.99683 17.5922 5.99683C16.9181 5.99683 16.3716 6.53173 16.3716 7.19156C16.3716 7.8514 16.9181 8.3863 17.5922 8.3863Z" fill="#BCBCBC"/>
<path d="M22.5445 8.3863C23.2186 8.3863 23.7651 7.8514 23.7651 7.19156C23.7651 6.53173 23.2186 5.99683 22.5445 5.99683C21.8703 5.99683 21.3239 6.53173 21.3239 7.19156C21.3239 7.8514 21.8703 8.3863 22.5445 8.3863Z" fill="#BCBCBC"/>
</svg>
