<svg width="24" height="24" viewBox="0 0 24 24" fill="none" xmlns="http://www.w3.org/2000/svg">
<path d="M23.35 21C23.35 22.2985 22.2985 23.35 21 23.35C19.7015 23.35 18.65 22.2985 18.65 21C18.65 19.7015 19.7015 18.65 21 18.65C22.2985 18.65 23.35 19.7015 23.35 21ZM23.35 12C23.35 13.2985 22.2985 14.35 21 14.35C19.7015 14.35 18.65 13.2985 18.65 12C18.65 10.7015 19.7015 9.65 21 9.65C22.2985 9.65 23.35 10.7015 23.35 12ZM23.35 3C23.35 4.29851 22.2985 5.35 21 5.35C19.7015 5.35 18.65 4.29851 18.65 3C18.65 1.70149 19.7015 0.65 21 0.65C22.2985 0.65 23.35 1.70149 23.35 3ZM14.35 21C14.35 22.2985 13.2985 23.35 12 23.35C10.7015 23.35 9.65 22.2985 9.65 21C9.65 19.7015 10.7015 18.65 12 18.65C13.2985 18.65 14.35 19.7015 14.35 21ZM14.35 12C14.35 13.2985 13.2985 14.35 12 14.35C10.7015 14.35 9.65 13.2985 9.65 12C9.65 10.7015 10.7015 9.65 12 9.65C13.2985 9.65 14.35 10.7015 14.35 12ZM14.35 3C14.35 4.29852 13.2985 5.35 12 5.35C10.7015 5.35 9.65 4.29852 9.65 3C9.65 1.70149 10.7015 0.65 12 0.65C13.2985 0.65 14.35 1.70149 14.35 3ZM5.35 21C5.35 22.2985 4.29851 23.35 3 23.35C1.70149 23.35 0.65 22.2985 0.65 21C0.65 19.7015 1.70149 18.65 3 18.65C4.29851 18.65 5.35 19.7015 5.35 21ZM5.35 12C5.35 13.2985 4.29852 14.35 3 14.35C1.70149 14.35 0.65 13.2985 0.65 12C0.65 10.7015 1.70149 9.65 3 9.65C4.29852 9.65 5.35 10.7015 5.35 12ZM5.35 3C5.35 4.29852 4.29852 5.35 3 5.35C1.70149 5.35 0.65 4.29852 0.65 3C0.65 1.70149 1.70149 0.65 3 0.65C4.29852 0.65 5.35 1.70149 5.35 3Z" stroke="#bcbcbc" stroke-width="1.3"/>
</svg>
