<svg width="19" height="19" viewBox="0 0 19 19" fill="none" xmlns="http://www.w3.org/2000/svg">
<path d="M0.75 9C0.75 8.30964 1.30964 7.75 2 7.75H17C17.6904 7.75 18.25 8.30964 18.25 9V10C18.25 10.6904 17.6904 11.25 17 11.25H2C1.30964 11.25 0.75 10.6904 0.75 10V9ZM0.75 16C0.75 15.3096 1.30964 14.75 2 14.75H17C17.6904 14.75 18.25 15.3096 18.25 16V17C18.25 17.6904 17.6904 18.25 17 18.25H2C1.30964 18.25 0.75 17.6904 0.75 17V16ZM0.75 2C0.75 1.30964 1.30964 0.75 2 0.75H17C17.6904 0.75 18.25 1.30964 18.25 2V3C18.25 3.69036 17.6904 4.25 17 4.25H2C1.30964 4.25 0.75 3.69036 0.75 3V2Z" stroke="#606060" stroke-width="1.5"/>
</svg>
