<svg width="19" height="19" viewBox="0 0 19 19" fill="#606060" xmlns="http://www.w3.org/2000/svg">
<mask id="path-1-inside-1" fill="white">
<path d="M0 2C0 0.895431 0.895431 0 2 0H7C8.10457 0 9 0.895431 9 2V9H2C0.895431 9 0 8.10457 0 7V2Z"/>
<path d="M10 2C10 0.895431 10.8954 0 12 0H17C18.1046 0 19 0.895431 19 2V7C19 8.10457 18.1046 9 17 9H10V2Z"/>
<path d="M0 12C0 10.8954 0.895431 10 2 10H9V17C9 18.1046 8.10457 19 7 19H2C0.895431 19 0 18.1046 0 17V12Z"/>
<path d="M10 10H17C18.1046 10 19 10.8954 19 12V17C19 18.1046 18.1046 19 17 19H12C10.8954 19 10 18.1046 10 17V10Z"/>
</mask>
<path d="M9 9V10.5H10.5V9H9ZM10 9H8.5V10.5H10V9ZM9 10H10.5V8.5H9V10ZM10 10V8.5H8.5V10H10ZM2 1.5H7V-1.5H2V1.5ZM7.5 2V9H10.5V2H7.5ZM9 7.5H2V10.5H9V7.5ZM1.5 7V2H-1.5V7H1.5ZM2 7.5C1.72386 7.5 1.5 7.27614 1.5 7H-1.5C-1.5 8.933 0.0670034 10.5 2 10.5V7.5ZM7 1.5C7.27614 1.5 7.5 1.72386 7.5 2H10.5C10.5 0.0670034 8.933 -1.5 7 -1.5V1.5ZM2 -1.5C0.0670034 -1.5 -1.5 0.0670034 -1.5 2H1.5C1.5 1.72386 1.72386 1.5 2 1.5V-1.5ZM12 1.5H17V-1.5H12V1.5ZM17.5 2V7H20.5V2H17.5ZM17 7.5H10V10.5H17V7.5ZM11.5 9V2H8.5V9H11.5ZM17.5 7C17.5 7.27614 17.2761 7.5 17 7.5V10.5C18.933 10.5 20.5 8.933 20.5 7H17.5ZM17 1.5C17.2761 1.5 17.5 1.72386 17.5 2H20.5C20.5 0.0670034 18.933 -1.5 17 -1.5V1.5ZM12 -1.5C10.067 -1.5 8.5 0.0670034 8.5 2H11.5C11.5 1.72386 11.7239 1.5 12 1.5V-1.5ZM2 11.5H9V8.5H2V11.5ZM7.5 10V17H10.5V10H7.5ZM7 17.5H2V20.5H7V17.5ZM1.5 17V12H-1.5V17H1.5ZM2 17.5C1.72386 17.5 1.5 17.2761 1.5 17H-1.5C-1.5 18.933 0.0670034 20.5 2 20.5V17.5ZM7.5 17C7.5 17.2761 7.27614 17.5 7 17.5V20.5C8.933 20.5 10.5 18.933 10.5 17H7.5ZM2 8.5C0.0670034 8.5 -1.5 10.067 -1.5 12H1.5C1.5 11.7239 1.72386 11.5 2 11.5V8.5ZM10 11.5H17V8.5H10V11.5ZM17.5 12V17H20.5V12H17.5ZM17 17.5H12V20.5H17V17.5ZM11.5 17V10H8.5V17H11.5ZM12 17.5C11.7239 17.5 11.5 17.2761 11.5 17H8.5C8.5 18.933 10.067 20.5 12 20.5V17.5ZM17.5 17C17.5 17.2761 17.2761 17.5 17 17.5V20.5C18.933 20.5 20.5 18.933 20.5 17H17.5ZM17 11.5C17.2761 11.5 17.5 11.7239 17.5 12H20.5C20.5 10.067 18.933 8.5 17 8.5V11.5Z" mask="url(#path-1-inside-1)"/>
</svg>
