<svg width="19" height="19" viewBox="0 0 19 19" fill="none" xmlns="http://www.w3.org/2000/svg">
<mask id="path-1-inside-1" fill="white">
<path d="M10.0001 2C10.0001 0.895431 10.8955 0 12.0001 0H17.0001C18.1047 0 19.0001 0.895431 19.0001 2V7C19.0001 8.10457 18.1047 9 17.0001 9H10.0001V2Z"/>
<path d="M10.0001 10H17.0001C18.1047 10 19.0001 10.8954 19.0001 12V17C19.0001 18.1046 18.1047 19 17.0001 19H12.0001C10.8955 19 10.0001 18.1046 10.0001 17V10Z"/>
<path d="M9.79304e-05 2C9.79304e-05 0.895431 0.895529 0 2.0001 0H7.0001C8.10467 0 9.0001 0.895431 9.0001 2C9.0001 3.10457 8.10467 4 7.0001 4H2.0001C0.895529 4 9.79304e-05 3.10457 9.79304e-05 2Z"/>
<path d="M0 7C0 5.89543 0.895431 5 2 5H7C8.10457 5 9 5.89543 9 7C9 8.10457 8.10457 9 7 9H2C0.895431 9 0 8.10457 0 7Z"/>
<path d="M6.55651e-07 12C6.55651e-07 10.8954 0.895431 10 2 10H7C8.10457 10 9 10.8954 9 12C9 13.1046 8.10457 14 7 14H2C0.895431 14 6.55651e-07 13.1046 6.55651e-07 12Z"/>
<path d="M-9.72748e-05 17C-9.72748e-05 15.8954 0.895333 15 1.9999 15H6.9999C8.10447 15 8.9999 15.8954 8.9999 17C8.9999 18.1046 8.10447 19 6.9999 19H1.9999C0.895333 19 -9.72748e-05 18.1046 -9.72748e-05 17Z"/>
</mask>
<path d="M10.0001 9H8.5001V10.5H10.0001V9ZM10.0001 10V8.5H8.5001V10H10.0001ZM12.0001 1.5H17.0001V-1.5H12.0001V1.5ZM17.5001 2V7H20.5001V2H17.5001ZM17.0001 7.5H10.0001V10.5H17.0001V7.5ZM11.5001 9V2H8.5001V9H11.5001ZM17.5001 7C17.5001 7.27614 17.2762 7.5 17.0001 7.5V10.5C18.9331 10.5 20.5001 8.933 20.5001 7H17.5001ZM17.0001 1.5C17.2762 1.5 17.5001 1.72386 17.5001 2H20.5001C20.5001 0.0670034 18.9331 -1.5 17.0001 -1.5V1.5ZM12.0001 -1.5C10.0671 -1.5 8.5001 0.0670034 8.5001 2H11.5001C11.5001 1.72386 11.724 1.5 12.0001 1.5V-1.5ZM10.0001 11.5H17.0001V8.5H10.0001V11.5ZM17.5001 12V17H20.5001V12H17.5001ZM17.0001 17.5H12.0001V20.5H17.0001V17.5ZM11.5001 17V10H8.5001V17H11.5001ZM12.0001 17.5C11.724 17.5 11.5001 17.2761 11.5001 17H8.5001C8.5001 18.933 10.0671 20.5 12.0001 20.5V17.5ZM17.5001 17C17.5001 17.2761 17.2762 17.5 17.0001 17.5V20.5C18.9331 20.5 20.5001 18.933 20.5001 17H17.5001ZM17.0001 11.5C17.2762 11.5 17.5001 11.7239 17.5001 12H20.5001C20.5001 10.067 18.9331 8.5 17.0001 8.5V11.5ZM2.0001 1.5H7.0001V-1.5H2.0001V1.5ZM7.0001 2.5H2.0001V5.5H7.0001V2.5ZM2.0001 2.5C1.72396 2.5 1.5001 2.27614 1.5001 2H-1.4999C-1.4999 3.933 0.0671015 5.5 2.0001 5.5V2.5ZM7.5001 2C7.5001 2.27614 7.27624 2.5 7.0001 2.5V5.5C8.93309 5.5 10.5001 3.933 10.5001 2H7.5001ZM7.0001 1.5C7.27624 1.5 7.5001 1.72386 7.5001 2H10.5001C10.5001 0.0670039 8.93309 -1.5 7.0001 -1.5V1.5ZM2.0001 -1.5C0.0671015 -1.5 -1.4999 0.0670034 -1.4999 2H1.5001C1.5001 1.72386 1.72396 1.5 2.0001 1.5V-1.5ZM2 6.5H7V3.5H2V6.5ZM7 7.5H2V10.5H7V7.5ZM2 7.5C1.72386 7.5 1.5 7.27614 1.5 7H-1.5C-1.5 8.933 0.0670034 10.5 2 10.5V7.5ZM7.5 7C7.5 7.27614 7.27614 7.5 7 7.5V10.5C8.933 10.5 10.5 8.933 10.5 7H7.5ZM7 6.5C7.27614 6.5 7.5 6.72386 7.5 7H10.5C10.5 5.067 8.933 3.5 7 3.5V6.5ZM2 3.5C0.0670034 3.5 -1.5 5.067 -1.5 7H1.5C1.5 6.72386 1.72386 6.5 2 6.5V3.5ZM2 11.5H7V8.5H2V11.5ZM7 12.5H2V15.5H7V12.5ZM2 12.5C1.72386 12.5 1.5 12.2761 1.5 12H-1.5C-1.5 13.933 0.0670042 15.5 2 15.5V12.5ZM7.5 12C7.5 12.2761 7.27614 12.5 7 12.5V15.5C8.933 15.5 10.5 13.933 10.5 12H7.5ZM7 11.5C7.27614 11.5 7.5 11.7239 7.5 12H10.5C10.5 10.067 8.933 8.5 7 8.5V11.5ZM2 8.5C0.0670042 8.5 -1.5 10.067 -1.5 12H1.5C1.5 11.7239 1.72386 11.5 2 11.5V8.5ZM1.9999 16.5H6.9999V13.5H1.9999V16.5ZM6.9999 17.5H1.9999V20.5H6.9999V17.5ZM1.9999 17.5C1.72376 17.5 1.4999 17.2761 1.4999 17H-1.5001C-1.5001 18.933 0.0669062 20.5 1.9999 20.5V17.5ZM7.4999 17C7.4999 17.2761 7.27604 17.5 6.9999 17.5V20.5C8.9329 20.5 10.4999 18.933 10.4999 17H7.4999ZM6.9999 16.5C7.27604 16.5 7.4999 16.7239 7.4999 17H10.4999C10.4999 15.067 8.9329 13.5 6.9999 13.5V16.5ZM1.9999 13.5C0.0669062 13.5 -1.5001 15.067 -1.5001 17H1.4999C1.4999 16.7239 1.72376 16.5 1.9999 16.5V13.5Z" fill="#606060" mask="url(#path-1-inside-1)"/>
</svg>
